<?xml version="1.0" standalone="yes"?>

<svg version="1.1" viewBox="0.0 0.0 557.2519685039371 524.7007874015748" fill="none" stroke="none" stroke-linecap="square" stroke-miterlimit="10" xmlns="http://www.w3.org/2000/svg" xmlns:xlink="http://www.w3.org/1999/xlink"><clipPath id="p.0"><path d="m0 0l557.25195 0l0 524.7008l-557.25195 0l0 -524.7008z" clip-rule="nonzero"></path></clipPath><g clip-path="url(#p.0)"><path fill="#000000" fill-opacity="0.0" d="m0 0l557.25195 0l0 524.7008l-557.25195 0z" fill-rule="nonzero"></path><path fill="#b6d7a8" d="m155.8969 121.76524l0 0c0 -65.192276 54.167755 -118.041046 120.987076 -118.041046l0 0c32.08777 0 62.861298 12.436432 85.55078 34.573425c22.689484 22.13699 35.43628 52.16119 35.43628 83.46762l0 0c0 65.192276 -54.167755 118.041046 -120.98706 118.041046l0 0c-66.81932 0 -120.987076 -52.84877 -120.987076 -118.041046z" fill-rule="nonzero"></path><path stroke="#d9ead3" stroke-width="1.0" stroke-linejoin="round" stroke-linecap="butt" d="m155.8969 121.76524l0 0c0 -65.192276 54.167755 -118.041046 120.987076 -118.041046l0 0c32.08777 0 62.861298 12.436432 85.55078 34.573425c22.689484 22.13699 35.43628 52.16119 35.43628 83.46762l0 0c0 65.192276 -54.167755 118.041046 -120.98706 118.041046l0 0c-66.81932 0 -120.987076 -52.84877 -120.987076 -118.041046z" fill-rule="nonzero"></path><path fill="#9fc5e8" d="m4.220001 307.11853l0 0c0 -65.19226 54.16776 -118.041046 120.987076 -118.041046l0 0c32.08777 0 62.861313 12.436432 85.55078 34.573425c22.689484 22.136993 35.436295 52.161194 35.436295 83.46762l0 0c0 65.19226 -54.167755 118.041046 -120.987076 118.041046l0 0c-66.81932 0 -120.987076 -52.848785 -120.987076 -118.041046z" fill-rule="nonzero"></path><path stroke="#d0e0e3" stroke-width="1.0" stroke-linejoin="round" stroke-linecap="butt" d="m4.220001 307.11853l0 0c0 -65.19226 54.16776 -118.041046 120.987076 -118.041046l0 0c32.08777 0 62.861313 12.436432 85.55078 34.573425c22.689484 22.136993 35.436295 52.161194 35.436295 83.46762l0 0c0 65.19226 -54.167755 118.041046 -120.987076 118.041046l0 0c-66.81932 0 -120.987076 -52.848785 -120.987076 -118.041046z" fill-rule="nonzero"></path><path fill="#000000" fill-opacity="0.0" d="m276.91895 520.276l0 -441.804" fill-rule="nonzero"></path><path stroke="#660000" stroke-width="8.0" stroke-linejoin="round" stroke-linecap="butt" d="m276.9189 520.276l0 -411.48398" fill-rule="evenodd"></path><path fill="#660000" stroke="#660000" stroke-width="8.0" stroke-linecap="butt" d="m276.9189 82.47202c7.2680664 0 13.160004 5.8919296 13.160004 13.159996c0 7.2680664 -5.8919373 13.160004 -13.160004 13.160004c-7.2680664 0 -13.160004 -5.8919373 -13.160004 -13.160004c0 -7.2680664 5.8919373 -13.159996 13.160004 -13.159996z" fill-rule="nonzero"></path><path fill="#000000" fill-opacity="0.0" d="m276.91895 197.56725l-56.077072 -48.544678" fill-rule="nonzero"></path><path stroke="#660000" stroke-width="8.0" stroke-linejoin="round" stroke-linecap="butt" d="m276.9189 197.56723l-33.15335 -28.700119" fill-rule="evenodd"></path><path fill="#660000" stroke="#660000" stroke-width="8.0" stroke-linecap="butt" d="m223.8661 151.64058c4.7569733 -5.4950867 13.067917 -6.093445 18.563004 -1.3364716c5.4950867 4.7569733 6.093445 13.067917 1.3364563 18.563004c-4.7569733 5.4950867 -13.067902 6.093445 -18.562988 1.3364716c-5.4950867 -4.7569733 -6.093445 -13.067917 -1.3364716 -18.563004z" fill-rule="nonzero"></path><path fill="#000000" fill-opacity="0.0" d="m276.02753 171.29198l43.597504 -35.420227" fill-rule="nonzero"></path><path stroke="#660000" stroke-width="8.0" stroke-linejoin="round" stroke-linecap="butt" d="m276.02753 171.29198l20.065002 -16.301544" fill-rule="evenodd"></path><path fill="#660000" stroke="#660000" stroke-width="8.0" stroke-linecap="butt" d="m316.52048 138.394c4.5829773 5.6410217 3.7252502 13.9292145 -1.9157715 18.512192c-5.6410217 4.5829773 -13.929199 3.7252655 -18.512177 -1.9157562c-4.5829773 -5.6410217 -3.7252808 -13.9292145 1.915741 -18.512192c5.6410217 -4.5829773 13.92923 -3.7252655 18.512207 1.9157562z" fill-rule="nonzero"></path><path fill="#d5a6bd" d="m311.20233 303.63364l0 0c0 -65.19226 54.167755 -118.041046 120.98709 -118.041046l0 0c32.08777 0 62.861298 12.436432 85.55075 34.573425c22.689514 22.136993 35.43634 52.161194 35.43634 83.46762l0 0c0 65.19226 -54.167786 118.041046 -120.98709 118.041046l0 0c-66.819336 0 -120.98709 -52.848785 -120.98709 -118.041046z" fill-rule="nonzero"></path><path stroke="#ead1dc" stroke-width="1.0" stroke-linejoin="round" stroke-linecap="butt" d="m311.20233 303.63364l0 0c0 -65.19226 54.167755 -118.041046 120.98709 -118.041046l0 0c32.08777 0 62.861298 12.436432 85.55075 34.573425c22.689514 22.136993 35.43634 52.161194 35.43634 83.46762l0 0c0 65.19226 -54.167786 118.041046 -120.98709 118.041046l0 0c-66.819336 0 -120.98709 -52.848785 -120.98709 -118.041046z" fill-rule="nonzero"></path><path fill="#000000" fill-opacity="0.0" d="m277.81033 448.22327l165.80011 -165.39978" fill-rule="nonzero"></path><path stroke="#5b0f00" stroke-width="8.0" stroke-linejoin="round" stroke-linecap="butt" d="m277.81033 448.22327l144.33472 -143.98624" fill-rule="evenodd"></path><path fill="#5b0f00" stroke="#5b0f00" stroke-width="8.0" stroke-linecap="butt" d="m440.7786 285.6485c5.133087 5.145508 5.1230164 13.477936 -0.022491455 18.611023c-5.145508 5.133087 -13.477966 5.1230164 -18.611053 -0.022491455c-5.1330566 -5.145508 -5.122986 -13.477936 0.022521973 -18.611023c5.145508 -5.133087 13.477936 -5.1230164 18.611023 0.022491455z" fill-rule="nonzero"></path><path fill="#000000" fill-opacity="0.0" d="m369.04037 356.62076l-12.317505 -66.09668" fill-rule="nonzero"></path><path stroke="#5b0f00" stroke-width="8.0" stroke-linejoin="round" stroke-linecap="butt" d="m369.04034 356.62073l-6.7628174 -36.289825" fill-rule="evenodd"></path><path fill="#5b0f00" stroke="#5b0f00" stroke-width="8.0" stroke-linecap="butt" d="m357.45566 294.45636c7.14505 -1.3315125 14.016693 3.3812866 15.348206 10.526337c1.3315125 7.1450806 -3.3812866 14.016693 -10.526337 15.348206c-7.14505 1.331543 -14.016693 -3.381256 -15.348206 -10.526306c-1.3315125 -7.1450806 3.3812866 -14.016693 10.526337 -15.348236z" fill-rule="nonzero"></path><path fill="#000000" fill-opacity="0.0" d="m391.67953 335.14914l52.99768 3.3206482" fill-rule="nonzero"></path><path stroke="#5b0f00" stroke-width="8.0" stroke-linejoin="round" stroke-linecap="butt" d="m391.67953 335.14914l22.737 1.4246216" fill-rule="evenodd"></path><path fill="#5b0f00" stroke="#5b0f00" stroke-width="8.0" stroke-linecap="butt" d="m440.68503 338.21964c-0.4544983 7.253845 -6.7033386 12.765808 -13.957184 12.31131c-7.253845 -0.4544983 -12.765808 -6.7033386 -12.31131 -13.957184c0.4544983 -7.253845 6.703369 -12.765808 13.957214 -12.31131c7.2538147 0.4544983 12.765778 6.7033386 12.311279 13.957184z" fill-rule="nonzero"></path><path fill="#000000" fill-opacity="0.0" d="m277.85864 448.22327l-182.14798 -165.39978" fill-rule="nonzero"></path><path stroke="#5b0f00" stroke-width="8.0" stroke-linejoin="round" stroke-linecap="butt" d="m277.85864 448.22327l-159.70139 -145.01712" fill-rule="evenodd"></path><path fill="#5b0f00" stroke="#5b0f00" stroke-width="8.0" stroke-linecap="butt" d="m98.67195 285.51248c4.885971 -5.380707 13.208763 -5.781769 18.589478 -0.895813c5.3807144 4.8859863 5.7817917 13.208771 0.8958206 18.589478c-4.8859634 5.3807373 -13.2087555 5.7817993 -18.589478 0.895813c-5.3807144 -4.885956 -5.781784 -13.20874 -0.8958206 -18.589478z" fill-rule="nonzero"></path><path fill="#000000" fill-opacity="0.0" d="m177.63335 356.62076l13.531998 -66.09668" fill-rule="nonzero"></path><path stroke="#5b0f00" stroke-width="8.0" stroke-linejoin="round" stroke-linecap="butt" d="m177.63335 356.62073l7.4507294 -36.39276" fill-rule="evenodd"></path><path fill="#5b0f00" stroke="#5b0f00" stroke-width="8.0" stroke-linecap="butt" d="m190.36307 294.44278c7.1203766 1.4577637 11.710831 8.411713 10.253082 15.5321045c-1.4577637 7.1203613 -8.411713 11.710815 -15.532089 10.253052c-7.1203766 -1.4577332 -11.710831 -8.411682 -10.253067 -15.532074c1.4577484 -7.1203613 8.411697 -11.710815 15.532074 -10.253082z" fill-rule="nonzero"></path><path fill="#000000" fill-opacity="0.0" d="m152.76195 335.14914l-58.22326 3.3206482" fill-rule="nonzero"></path><path stroke="#5b0f00" stroke-width="8.0" stroke-linejoin="round" stroke-linecap="butt" d="m152.76195 335.14914l-27.952461 1.5942078" fill-rule="evenodd"></path><path fill="#5b0f00" stroke="#5b0f00" stroke-width="8.0" stroke-linecap="butt" d="m98.532196 338.242c-0.41384888 -7.256256 5.1330338 -13.474121 12.389313 -13.88797c7.2562714 -0.41384888 13.474136 5.133026 13.887978 12.389313c0.41384888 7.2562866 -5.1330338 13.474121 -12.389313 13.88797c-7.2562714 0.41384888 -13.474136 -5.133026 -13.887978 -12.389313z" fill-rule="nonzero"></path></g></svg>

